<?xml version="1.0" encoding="UTF-8"?>
<!DOCTYPE svg PUBLIC "-//W3C//DTD SVG 1.1//EN" "http://www.w3.org/Graphics/SVG/1.1/DTD/svg11.dtd">
<!-- Creator: CorelDRAW -->
<svg xmlns="http://www.w3.org/2000/svg" xml:space="preserve" width="98.098mm" height="131.465mm" version="1.1" shape-rendering="geometricPrecision" text-rendering="geometricPrecision" image-rendering="optimizeQuality" fill-rule="evenodd" clip-rule="evenodd"
viewBox="0 0 9809.8 13146.46"
 xmlns:xlink="http://www.w3.org/1999/xlink"
 xmlns:xodm="http://www.corel.com/coreldraw/odm/2003">
 <g id="BH">
  <metadata id="CorelCorpID_0Corel-Layer"/>
  <path fill="#0098DB" d="M-0 0l9809.8 0 0 13146.46 -9809.8 0 0 -13146.46zm800.8 9009l1001 0 0 -3603.6 2602.6 0 0 3603.6 4604.6 0 0 -8208.2 -8208.2 0 0 8208.2zm7207.2 -7207.2l-6206.2 0 0 0 0 2602.6 0 0 6206.2 0 0 0 0 -2602.6zm-2602.6 6206.2l0 -2602.6 2602.6 0 0 2602.6 -2602.6 0z"/>
  <path fill="white" fill-rule="nonzero" d="M877.8 10046.01l521.71 0 0 104.87 -419.81 0 0 259.38 369.12 0 0 101.89 -369.12 0 0 388.68 -101.9 0 0 -854.82zm959.52 504.47l-114.13 -377.56 -121.47 377.56 235.6 0zm-167.43 -504.47l115.17 0 273.01 854.82 -111.69 0 -76.2 -256.01 -297.65 0 -81.26 256.01 -104.52 0 283.14 -854.82zm797.85 -23.23c95.08,0 169.01,28.6 221.62,85.6 52.61,57 81.8,121.74 87.56,194.24l-99.27 0c-11.36,-55.02 -33.73,-98.71 -67.46,-130.89 -33.56,-32.17 -80.75,-48.26 -141.57,-48.26 -73.94,0 -133.88,29.59 -179.33,88.78 -45.61,59.18 -68.5,149.75 -68.5,271.9 0,100.1 20.61,181.33 61.69,243.49 41.25,62.37 102.59,93.55 184.21,93.55 74.99,0 132.14,-32.77 171.46,-98.31 20.8,-34.56 36.36,-80.04 46.67,-136.25l99.27 0c-8.91,89.97 -38.28,165.44 -88.09,226.41 -59.77,73.29 -140.35,109.84 -241.71,109.84 -87.39,0 -160.8,-29.99 -220.05,-90.17 -78.3,-79.45 -117.28,-202.19 -117.28,-368.23 0,-126.11 29.37,-229.59 88.09,-310.22 63.45,-87.59 151.01,-131.48 262.69,-131.48zm550.9 23.23l0 528.31c0,62.16 10.14,113.8 30.76,154.91 30.24,61.97 81.45,92.95 153.63,92.95 86.34,0 145.06,-33.37 176,-100.5 16.78,-36.54 25.17,-85.6 25.17,-147.36l0 -528.31 103.47 0 0 480.04c0,105.27 -12.58,186.1 -37.41,242.7 -45.78,103.08 -132.13,154.72 -259.19,154.72 -126.89,0 -213.05,-51.64 -258.49,-154.72 -25,-56.6 -37.4,-137.43 -37.4,-242.7l0 -480.04 103.46 0zm646.67 0l101.9 0 0 752.93 381.01 0 0 101.89 -482.91 0 0 -854.82zm1053.39 0l0 101.89 -253.42 0 0 752.93 -103.47 0 0 -752.93 -253.42 0 0 -101.89 610.31 0zm34.79 0l118.84 0 216.03 410.93 216.03 -410.93 119.37 0 -284.19 510.43 0 344.39 -101.9 0 0 -344.39 -284.18 -510.43zm1355.21 -23.23c132.83,0 231.23,48.46 295.03,145.58 49.8,75.47 74.8,172.39 74.8,290.17 0,127.7 -28.49,233.76 -85.65,318.37 -66.76,99.3 -162.19,148.95 -286.1,148.95 -115.7,0 -206.77,-43.49 -273,-130.28 -59.08,-83.82 -88.62,-189.68 -88.62,-317.78 0,-115.59 25.34,-214.5 75.86,-296.72 64.84,-105.46 160.79,-158.29 287.68,-158.29zm10.31 799.4c89.84,0 154.68,-36.54 194.88,-109.63 40.02,-73.09 60.12,-157.1 60.12,-252.24 0,-100.49 -23.07,-181.33 -69.38,-242.5 -46.32,-61.37 -109.41,-91.96 -189.64,-91.96 -77.95,0 -141.39,30.19 -190.5,90.97 -49.12,60.77 -73.76,150.15 -73.76,268.52 0,94.73 20.97,174.58 63.27,239.52 42.12,64.95 110.45,97.32 205.01,97.32zm490.6 -776.17l521.71 0 0 104.87 -419.81 0 0 259.38 369.12 0 0 101.89 -369.12 0 0 388.68 -101.9 0 0 -854.82zm-5420.77 1929.66l-114.13 -377.56 -121.46 377.56 235.59 0zm-167.43 -504.47l115.18 0 273 854.82 -111.68 0 -76.21 -256.01 -297.64 0 -81.27 256.01 -104.52 0 283.14 -854.82zm830.54 391.66c47.71,0 85.64,-10.92 113.43,-32.57 27.79,-21.65 41.77,-60.97 41.77,-117.58 0,-60.97 -19.58,-102.48 -58.38,-124.53 -20.79,-11.52 -48.76,-17.47 -83.54,-17.47l-248.88 0 0 292.15 235.6 0zm-337.49 -391.66l348.33 0c57.32,0 104.52,9.54 141.74,28.6 70.61,36.35 106.09,103.68 106.09,201.79 0,51.24 -9.44,93.15 -27.96,125.72 -18.7,32.57 -44.75,58.79 -78.13,78.65 29.36,13.51 51.38,31.38 66.24,53.43 14.85,22.24 23.25,57.99 24.99,107.64l3.5 114.6c1.05,32.57 3.49,57 7.16,72.89 6.12,27.01 17.13,44.49 32.86,52.23l0 19.27 -124.97 0c-3.49,-7.35 -6.11,-16.88 -8.21,-28.6 -2.1,-11.52 -3.84,-33.96 -5.06,-67.33l-6.3 -142.6c-2.27,-55.81 -20.62,-93.35 -54.71,-112.41 -19.39,-10.33 -49.98,-15.69 -91.58,-15.69l-232.1 0 0 366.63 -101.89 0 0 -854.82zm1062.11 -23.23c95.09,0 169.02,28.6 221.62,85.6 52.61,57 81.8,121.74 87.56,194.24l-99.27 0c-11.36,-55.02 -33.73,-98.71 -67.46,-130.89 -33.56,-32.17 -80.75,-48.26 -141.57,-48.26 -73.93,0 -133.88,29.59 -179.32,88.78 -45.61,59.18 -68.51,149.75 -68.51,271.9 0,100.1 20.62,181.33 61.7,243.49 41.24,62.37 102.59,93.55 184.21,93.55 74.98,0 132.13,-32.77 171.46,-98.31 20.79,-34.56 36.35,-80.04 46.66,-136.25l99.27 0c-8.91,89.97 -38.28,165.44 -88.08,226.41 -59.78,73.29 -140.35,109.84 -241.72,109.84 -87.39,0 -160.8,-29.99 -220.05,-90.17 -78.3,-79.45 -117.27,-202.19 -117.27,-368.23 0,-126.11 29.36,-229.59 88.08,-310.22 63.45,-87.59 151.01,-131.48 262.69,-131.48zm442.89 23.23l102.95 0 0 353.33 391.14 0 0 -353.33 102.95 0 0 854.82 -102.95 0 0 -399.8 -391.14 0 0 399.8 -102.95 0 0 -854.82zm777.76 0l102.94 0 0 854.82 -102.94 0 0 -854.82zm815.68 0l0 101.89 -253.42 0 0 752.93 -103.47 0 0 -752.93 -253.42 0 0 -101.89 610.31 0zm102.95 0l548.28 0 0 104.87 -449 0 0 259.38 415.26 0 0 98.91 -415.26 0 0 289.77 456.69 0 0 101.89 -555.97 0 0 -854.82zm1006.71 -23.23c95.09,0 169.02,28.6 221.62,85.6 52.61,57 81.8,121.74 87.56,194.24l-99.27 0c-11.36,-55.02 -33.73,-98.71 -67.46,-130.89 -33.55,-32.17 -80.75,-48.26 -141.57,-48.26 -73.93,0 -133.88,29.59 -179.32,88.78 -45.61,59.18 -68.51,149.75 -68.51,271.9 0,100.1 20.62,181.33 61.7,243.49 41.24,62.37 102.59,93.55 184.21,93.55 74.98,0 132.13,-32.77 171.46,-98.31 20.79,-34.56 36.35,-80.04 46.66,-136.25l99.28 0c-8.92,89.97 -38.28,165.44 -88.09,226.41 -59.78,73.29 -140.35,109.84 -241.72,109.84 -87.38,0 -160.79,-29.99 -220.04,-90.17 -78.31,-79.45 -117.28,-202.19 -117.28,-368.23 0,-126.11 29.36,-229.59 88.09,-310.22 63.44,-87.59 151,-131.48 262.68,-131.48zm987.67 23.23l0 101.89 -253.42 0 0 752.93 -103.47 0 0 -752.93 -253.42 0 0 -101.89 610.31 0zm203.79 0l0 528.31c0,62.16 10.14,113.8 30.77,154.91 30.23,61.97 81.44,92.95 153.63,92.95 86.33,0 145.06,-33.37 176,-100.5 16.78,-36.54 25.17,-85.6 25.17,-147.36l0 -528.31 103.47 0 0 480.04c0,105.27 -12.59,186.1 -37.41,242.7 -45.79,103.08 -132.13,154.72 -259.2,154.72 -126.88,0 -213.05,-51.64 -258.49,-154.72 -24.99,-56.6 -37.4,-137.43 -37.4,-242.7l0 -480.04 103.46 0zm996.41 391.66c47.71,0 85.64,-10.92 113.43,-32.57 27.79,-21.65 41.77,-60.97 41.77,-117.58 0,-60.97 -19.58,-102.48 -58.37,-124.53 -20.8,-11.52 -48.77,-17.47 -83.54,-17.47l-248.88 0 0 292.15 235.59 0zm-337.49 -391.66l348.33 0c57.32,0 104.52,9.54 141.74,28.6 70.61,36.35 106.1,103.68 106.1,201.79 0,51.24 -9.45,93.15 -27.97,125.72 -18.7,32.57 -44.75,58.79 -78.13,78.65 29.37,13.51 51.39,31.38 66.24,53.43 14.85,22.24 23.25,57.99 24.99,107.64l3.5 114.6c1.05,32.57 3.5,57 7.17,72.89 6.11,27.01 17.12,44.49 32.86,52.23l0 19.27 -124.97 0c-3.5,-7.35 -6.12,-16.88 -8.21,-28.6 -2.11,-11.52 -3.85,-33.96 -5.07,-67.33l-6.29 -142.6c-2.27,-55.81 -20.63,-93.35 -54.71,-112.41 -19.4,-10.33 -49.99,-15.69 -91.58,-15.69l-232.1 0 0 366.63 -101.9 0 0 -854.82zm754.86 0l548.28 0 0 104.87 -449 0 0 259.38 415.26 0 0 98.91 -415.26 0 0 289.77 456.69 0 0 101.89 -555.97 0 0 -854.82z"/>
 </g>
</svg>
